<?xml version="1.0" encoding="UTF-8" standalone="no"?>
<svg width="128" height="128" viewBox="0 0 128 128" fill="none" xmlns="http://www.w3.org/2000/svg">
  <!-- Background gradient -->
  <rect width="128" height="128" rx="24" fill="url(#paint0_linear)" />
  
  <!-- Grid pattern -->
  <path opacity="0.1" d="M0 32H128M0 64H128M0 96H128M32 0V128M64 0V128M96 0V128" stroke="white" stroke-width="1"/>
  
  <!-- Glow effect -->
  <circle cx="64" cy="64" r="48" fill="url(#paint1_radial)" opacity="0.5" />
  
  <!-- Letter B -->
  <g>
    <path d="M48 38H72C79.732 38 86 44.268 86 52C86 56.9 83.1 61.1 78.9 63.1C83.5 64.9 87 69.6 87 75C87 83.3 80.3 90 72 90H48V38Z" fill="white"/>
    <path d="M58 48V58H70C73.3 58 76 55.3 76 52C76 48.7 73.3 46 70 46H58V48Z" fill="url(#paint0_linear)"/>
    <path d="M58 68V80H70C74.4 80 78 76.4 78 72C78 67.6 74.4 64 70 64H58V68Z" fill="url(#paint0_linear)"/>
  </g>
  
  <!-- Word symbols as tabs -->
  <g transform="translate(24, 96)">
    <rect x="0" y="0" width="16" height="16" rx="4" fill="#4F46E5" opacity="0.7" />
    <text x="8" y="12" font-family="Arial, sans-serif" font-size="10" text-anchor="middle" fill="white" font-weight="bold">A</text>
  </g>
  
  <g transform="translate(46, 96)">
    <rect x="0" y="0" width="16" height="16" rx="4" fill="#7C3AED" opacity="0.7" />
    <text x="8" y="12" font-family="Arial, sans-serif" font-size="10" text-anchor="middle" fill="white" font-weight="bold">B</text>
  </g>
  
  <g transform="translate(68, 96)">
    <rect x="0" y="0" width="16" height="16" rx="4" fill="#4F46E5" opacity="0.7" />
    <text x="8" y="12" font-family="Arial, sans-serif" font-size="10" text-anchor="middle" fill="white" font-weight="bold">C</text>
  </g>
  
  <g transform="translate(90, 96)">
    <rect x="0" y="0" width="16" height="16" rx="4" fill="#7C3AED" opacity="0.7" />
    <text x="8" y="12" font-family="Arial, sans-serif" font-size="10" text-anchor="middle" fill="white" font-weight="bold">D</text>
  </g>
  
  <!-- Emoji element -->
  <text x="104" y="32" font-family="Arial, sans-serif" font-size="14" text-anchor="middle" fill="white">🧩</text>
  
  <!-- Definitions -->
  <defs>
    <linearGradient id="paint0_linear" x1="0" y1="0" x2="128" y2="128" gradientUnits="userSpaceOnUse">
      <stop offset="0" stop-color="#4F46E5" />
      <stop offset="1" stop-color="#7C3AED" />
    </linearGradient>
    <radialGradient id="paint1_radial" cx="0" cy="0" r="1" gradientUnits="userSpaceOnUse" gradientTransform="translate(64 64) rotate(90) scale(48)">
      <stop offset="0" stop-color="white" stop-opacity="0.3" />
      <stop offset="1" stop-color="white" stop-opacity="0" />
    </radialGradient>
  </defs>
</svg>