<?xml version="1.0" encoding="UTF-8" standalone="no"?>
<svg width="48" height="48" viewBox="0 0 48 48" fill="none" xmlns="http://www.w3.org/2000/svg">
  <!-- Background gradient -->
  <rect width="48" height="48" rx="10" fill="url(#paint0_linear)" />
  
  <!-- Glow effect -->
  <circle cx="24" cy="24" r="18" fill="url(#paint1_radial)" opacity="0.5" />
  
  <!-- Letter B -->
  <g>
    <path d="M18 14H27C30.3137 14 33 16.6863 33 20C33 21.9 31.8 23.5 30 24.2C31.8 24.8 33 26.5 33 28.5C33 31.5 30.5 34 27 34H18V14Z" fill="white"/>
    <path d="M21 18V22H26C27.1 22 28 21.1 28 20C28 18.9 27.1 18 26 18H21Z" fill="url(#paint0_linear)"/>
    <path d="M21 26V30H26C27.7 30 29 28.7 29 27C29 25.3 27.7 24 26 24H21V26Z" fill="url(#paint0_linear)"/>
  </g>
  
  <!-- Word symbols as tabs -->
  <g transform="translate(9, 36)">
    <rect x="0" y="0" width="6" height="6" rx="1.5" fill="#4F46E5" opacity="0.7" />
    <text x="3" y="4.5" font-family="Arial, sans-serif" font-size="4" text-anchor="middle" fill="white" font-weight="bold">A</text>
  </g>
  
  <g transform="translate(17, 36)">
    <rect x="0" y="0" width="6" height="6" rx="1.5" fill="#7C3AED" opacity="0.7" />
    <text x="3" y="4.5" font-family="Arial, sans-serif" font-size="4" text-anchor="middle" fill="white" font-weight="bold">B</text>
  </g>
  
  <g transform="translate(25, 36)">
    <rect x="0" y="0" width="6" height="6" rx="1.5" fill="#4F46E5" opacity="0.7" />
    <text x="3" y="4.5" font-family="Arial, sans-serif" font-size="4" text-anchor="middle" fill="white" font-weight="bold">C</text>
  </g>
  
  <g transform="translate(33, 36)">
    <rect x="0" y="0" width="6" height="6" rx="1.5" fill="#7C3AED" opacity="0.7" />
    <text x="3" y="4.5" font-family="Arial, sans-serif" font-size="4" text-anchor="middle" fill="white" font-weight="bold">D</text>
  </g>
  
  <!-- Definitions -->
  <defs>
    <linearGradient id="paint0_linear" x1="0" y1="0" x2="48" y2="48" gradientUnits="userSpaceOnUse">
      <stop offset="0" stop-color="#4F46E5" />
      <stop offset="1" stop-color="#7C3AED" />
    </linearGradient>
    <radialGradient id="paint1_radial" cx="0" cy="0" r="1" gradientUnits="userSpaceOnUse" gradientTransform="translate(24 24) rotate(90) scale(18)">
      <stop offset="0" stop-color="white" stop-opacity="0.3" />
      <stop offset="1" stop-color="white" stop-opacity="0" />
    </radialGradient>
  </defs>
</svg>