<?xml version="1.0" encoding="UTF-8" standalone="no"?>
<svg width="16" height="16" viewBox="0 0 16 16" fill="none" xmlns="http://www.w3.org/2000/svg">
  <!-- Background gradient -->
  <rect width="16" height="16" rx="3" fill="url(#paint0_linear)" />
  
  <!-- Glow effect -->
  <circle cx="8" cy="8" r="6" fill="url(#paint1_radial)" opacity="0.5" />
  
  <!-- Letter B -->
  <path d="M5 4H9C10.1 4 11 4.9 11 6C11 6.7 10.6 7.4 10 7.7C10.6 8 11 8.7 11 9.5C11 10.9 9.9 12 8.5 12H5V4Z" fill="white"/>
  <path d="M6.5 5.5V7H8.5C8.8 7 9 6.8 9 6.5C9 6.2 8.8 6 8.5 6H6.5V5.5Z" fill="url(#paint0_linear)"/>
  <path d="M6.5 8.5V10.5H8.5C9.3 10.5 10 9.8 10 9C10 8.2 9.3 7.5 8.5 7.5H6.5V8.5Z" fill="url(#paint0_linear)"/>
  
  <!-- Definitions -->
  <defs>
    <linearGradient id="paint0_linear" x1="0" y1="0" x2="16" y2="16" gradientUnits="userSpaceOnUse">
      <stop offset="0" stop-color="#4F46E5" />
      <stop offset="1" stop-color="#7C3AED" />
    </linearGradient>
    <radialGradient id="paint1_radial" cx="0" cy="0" r="1" gradientUnits="userSpaceOnUse" gradientTransform="translate(8 8) rotate(90) scale(6)">
      <stop offset="0" stop-color="white" stop-opacity="0.3" />
      <stop offset="1" stop-color="white" stop-opacity="0" />
    </radialGradient>
  </defs>
</svg>