<?xml version="1.0" encoding="UTF-8" standalone="no"?>
<svg width="920" height="680" viewBox="0 0 920 680" fill="none" xmlns="http://www.w3.org/2000/svg">
  <!-- Background gradient -->
  <rect width="920" height="680" fill="url(#paint0_linear)" />
  
  <!-- Grid pattern -->
  <path opacity="0.1" d="M0 80H920M0 160H920M0 240H920M0 320H920M0 400H920M0 480H920M0 560H920M0 640H920M80 0V680M160 0V680M240 0V680M320 0V680M400 0V680M480 0V680M560 0V680M640 0V680M720 0V680M800 0V680M880 0V680" stroke="white" stroke-width="2"/>
  
  <!-- Circular glow effect -->
  <circle cx="460" cy="340" r="200" fill="url(#paint1_radial)" opacity="0.7" />
  
  <!-- Main title -->
  <text x="460" y="180" font-family="Arial, sans-serif" font-size="80" text-anchor="middle" fill="white" font-weight="bold">Burble</text>
  <text x="460" y="260" font-family="Arial, sans-serif" font-size="40" text-anchor="middle" fill="white">Brain Teasers</text>
  
  <!-- Game modes -->
  <text x="460" y="340" font-family="Arial, sans-serif" font-size="30" text-anchor="middle" fill="white">Word Puzzles • Emoji Guess • Valentine</text>
  
  <!-- Game elements -->
  <g transform="translate(280, 380)">
    <rect x="0" y="0" width="80" height="80" rx="12" fill="#4F46E5" />
    <text x="40" y="55" font-family="Arial, sans-serif" font-size="50" text-anchor="middle" fill="white">W</text>
  </g>
  
  <g transform="translate(380, 380)">
    <rect x="0" y="0" width="80" height="80" rx="12" fill="#7C3AED" />
    <text x="40" y="55" font-family="Arial, sans-serif" font-size="50" text-anchor="middle" fill="white">O</text>
  </g>
  
  <g transform="translate(480, 380)">
    <rect x="0" y="0" width="80" height="80" rx="12" fill="#4F46E5" />
    <text x="40" y="55" font-family="Arial, sans-serif" font-size="50" text-anchor="middle" fill="white">R</text>
  </g>
  
  <g transform="translate(580, 380)">
    <rect x="0" y="0" width="80" height="80" rx="12" fill="#7C3AED" />
    <text x="40" y="55" font-family="Arial, sans-serif" font-size="50" text-anchor="middle" fill="white">D</text>
  </g>
  
  <!-- Emoji row -->
  <text x="340" y="520" font-family="Arial, sans-serif" font-size="50" text-anchor="middle" fill="white">🎮</text>
  <text x="420" y="520" font-family="Arial, sans-serif" font-size="50" text-anchor="middle" fill="white">🧩</text>
  <text x="500" y="520" font-family="Arial, sans-serif" font-size="50" text-anchor="middle" fill="white">🎯</text>
  <text x="580" y="520" font-family="Arial, sans-serif" font-size="50" text-anchor="middle" fill="white">🧠</text>
  
  <!-- Call to action -->
  <text x="460" y="620" font-family="Arial, sans-serif" font-size="36" text-anchor="middle" fill="white">Challenge Your Mind</text>
  
  <!-- Definitions -->
  <defs>
    <linearGradient id="paint0_linear" x1="0" y1="0" x2="920" y2="680" gradientUnits="userSpaceOnUse">
      <stop offset="0" stop-color="#4F46E5" />
      <stop offset="1" stop-color="#7C3AED" />
    </linearGradient>
    <radialGradient id="paint1_radial" cx="0" cy="0" r="1" gradientUnits="userSpaceOnUse" gradientTransform="translate(460 340) rotate(90) scale(200)">
      <stop offset="0" stop-color="white" stop-opacity="0.3" />
      <stop offset="1" stop-color="white" stop-opacity="0" />
    </radialGradient>
  </defs>
</svg>