<?xml version="1.0" encoding="UTF-8" standalone="no"?>
<svg width="128" height="128" xmlns="http://www.w3.org/2000/svg">
  <!-- Background -->
  <rect width="100%" height="100%" fill="#8a2be2" rx="16" ry="16" />
  
  <!-- Brain shape -->
  <g transform="translate(20, 27) scale(0.55)">
    <path fill="#f5f5f5" d="M132.2,50.8c-0.3-2.3-2-4.2-4.2-4.9c-0.6-6-3.2-11.3-7.2-14.9c-5-4.4-10.9-5.4-15.8-5.3
      c-2.3-7.5-8.3-12.4-16-13.4c-8.3-1-16.1,3-20.3,10.4c-7.3-1.3-13.8,0.7-19.5,6c-5,4.7-8.9,11.6-8.9,20.8c0,1.7,0.3,3.2,0.6,4.4
      c-7.1,3.1-11,10.5-10.1,18.8c0.6,5.2,3.1,11.1,8.6,14.1c1.4,5.6,5.1,9.4,10.9,10.8c2.7,0.7,5.4,0.6,8-0.1c3.1,6.5,8.9,9.2,15.7,9.2
      c4.5,0,9.5-1.3,14.2-3.7c1.1,0.2,2.2,0.3,3.4,0.3c8.5,0,16-5.3,17.9-13.4c5-0.3,9.5-2.9,12.6-7.7c3.1-4.8,3.5-11.1,1.3-15.4
      c4.6-3.5,7.9-8.5,9.1-14.5c0.7-3.7,0.4-7.3-0.4-10.4C133.1,59.1,133.2,54.7,132.2,50.8z"/>
    
    <!-- Brain detail lines -->
    <path fill="none" stroke="#c980ff" stroke-width="2" d="M66,59.5c5.6-6.8,11.4-7,17-5.5"/>
    <path fill="none" stroke="#c980ff" stroke-width="2" d="M73,76.5c4.6-6.1,12.1-7.4,18-5"/>
    <path fill="none" stroke="#c980ff" stroke-width="2" d="M87,46.5c6.2-2.8,12.1-1.9,16,3"/>
    <path fill="none" stroke="#c980ff" stroke-width="2" d="M91,64.5c6.7-2.6,11.9-1.3,15,4"/>
    <path fill="none" stroke="#c980ff" stroke-width="2" d="M52,62.5c-4.3-4.8-5.2-10.6-3-16"/>
    <path fill="none" stroke="#c980ff" stroke-width="2" d="M58,80.5c-6.1-3.3-8-8.5-7-15"/>
  </g>
  
  <!-- Emoji speech bubbles -->
  <g>
    <!-- Speech bubble 1 -->
    <path fill="#ffffff" d="M90,32 C102,32 112,42 112,52 C112,62 102,72 90,72 C85.7,72 81.7,70.7 78.3,68.5 L70,74 L72,65.3 C69.5,61.7 68,57 68,52 C68,42 78,32 90,32 Z" />
    <text x="90" y="56" font-family="Arial, sans-serif" font-size="16" text-anchor="middle" dominant-baseline="middle">🧩</text>
    
    <!-- Speech bubble 2 -->
    <path fill="#ffffff" d="M86,78 C90.4,78 94,81.6 94,86 C94,90.4 90.4,94 86,94 C84.2,94 82.6,93.3 81.5,92.1 L78,94 L78.9,90.6 C78.3,89.2 78,87.6 78,86 C78,81.6 81.6,78 86,78 Z" />
    <text x="86" y="87" font-family="Arial, sans-serif" font-size="10" text-anchor="middle" dominant-baseline="middle">❓</text>
    
    <!-- Speech bubble 3 -->
    <path fill="#ffffff" d="M97,88 C101.4,88 105,91.6 105,96 C105,100.4 101.4,104 97,104 C95.2,104 93.6,103.3 92.5,102.1 L89,104 L89.9,100.6 C89.3,99.2 89,97.6 89,96 C89,91.6 92.6,88 97,88 Z" />
    <text x="97" y="97" font-family="Arial, sans-serif" font-size="10" text-anchor="middle" dominant-baseline="middle">💡</text>
  </g>
  
  <!-- Burble text -->
  <text x="64" y="118" font-family="Arial, sans-serif" font-weight="bold" font-size="16" text-anchor="middle" fill="white">BURBLE</text>
</svg>