<?xml version="1.0" encoding="UTF-8"?>
<svg width="400" height="300" viewBox="0 0 400 300" xmlns="http://www.w3.org/2000/svg">
  <rect width="400" height="300" fill="#f8f9fa"/>
  
  <!-- Background -->
  <rect x="50" y="50" width="300" height="200" rx="10" fill="#e0f2fe" stroke="#0369a1" stroke-width="3"/>
  
  <!-- Toy icon -->
  <circle cx="120" cy="120" r="40" fill="#f97316"/>
  <rect x="100" y="85" width="40" height="10" rx="5" fill="#fff"/>
  <circle cx="110" cy="110" r="8" fill="#fff"/>
  <circle cx="130" cy="110" r="8" fill="#fff"/>
  <path d="M110 130 Q 120 140 130 130" fill="none" stroke="#fff" stroke-width="3" stroke-linecap="round"/>
  
  <!-- Spaceman icon -->
  <circle cx="280" cy="120" r="40" fill="#8b5cf6"/>
  <rect x="260" y="90" width="40" height="30" rx="15" fill="#fff"/>
  <rect x="270" y="120" width="20" height="40" fill="#fff"/>
  <rect x="255" y="140" width="15" height="25" fill="#fff"/>
  <rect x="290" y="140" width="15" height="25" fill="#fff"/>
  
  <!-- Play icon -->
  <circle cx="200" cy="200" r="30" fill="#ef4444"/>
  <path d="M190 185 L220 200 L190 215 Z" fill="#fff"/>
  
  <!-- Text -->
  <text x="200" y="270" font-family="Arial" font-size="16" font-weight="bold" fill="#333" text-anchor="middle">Guess the Movie!</text>
</svg>