<?xml version="1.0" encoding="UTF-8"?>
<svg width="400" height="300" viewBox="0 0 400 300" xmlns="http://www.w3.org/2000/svg">
  <rect width="400" height="300" fill="#f8f9fa"/>
  
  <!-- Background -->
  <rect x="50" y="50" width="300" height="200" rx="10" fill="#d1fae5" stroke="#047857" stroke-width="3"/>
  
  <!-- Mountains -->
  <path d="M70 200 L 130 120 L 190 180 L 240 110 L 330 200 Z" fill="#a1a1aa"/>
  
  <!-- Geyser/Hot spring -->
  <circle cx="200" cy="150" r="20" fill="#06b6d4"/>
  <path d="M200 130 Q 210 120, 200 110 Q 190 100, 200 90 Q 210 80, 200 70" fill="none" stroke="#fff" stroke-width="4" stroke-linecap="round"/>
  <circle cx="240" cy="180" r="15" fill="#f97316"/>
  <circle cx="160" cy="170" r="10" fill="#facc15"/>
  
  <!-- Water feature -->
  <path d="M100 200 L 100 180 L 300 180 L 300 200 Z" fill="#0284c7"/>
  
  <!-- Trees -->
  <path d="M100 170 L 90 140 L 110 140 Z" fill="#166534"/>
  <path d="M100 150 L 90 120 L 110 120 Z" fill="#166534"/>
  <path d="M100 130 L 95 110 L 105 110 Z" fill="#166534"/>
  <rect x="97" y="170" width="6" height="10" fill="#7f1d1d"/>
  
  <path d="M300 170 L 290 140 L 310 140 Z" fill="#166534"/>
  <path d="M300 150 L 290 120 L 310 120 Z" fill="#166534"/>
  <path d="M300 130 L 295 110 L 305 110 Z" fill="#166534"/>
  <rect x="297" y="170" width="6" height="10" fill="#7f1d1d"/>
  
  <!-- Text -->
  <text x="200" y="270" font-family="Arial" font-size="16" font-weight="bold" fill="#333" text-anchor="middle">Guess the Place!</text>
</svg>